<?xml version="1.0" encoding="iso-8859-1"?>
<!-- Uploaded to: SVG Repo, www.svgrepo.com, Generator: SVG Repo Mixer Tools -->
<svg version="1.1" id="Layer_1" xmlns="http://www.w3.org/2000/svg" xmlns:xlink="http://www.w3.org/1999/xlink" 
	 viewBox="0 0 512 512" xml:space="preserve">
<rect x="21.664" y="68.64" style="fill:#F33052;" width="468.64" height="286"/>
<path d="M480,77.632V346.96H32V77.632H480 M488,45.632H24c-13.2,0-24,10.8-24,24V354.96c0,13.2,10.8,24,24,24h464
	c13.2,0,24-10.8,24-24V69.632C512,56.432,501.2,45.632,488,45.632L488,45.632z"/>
<rect x="216" y="378.976" style="fill:#494949;" width="80" height="71.328"/>
<rect x="142.992" y="434.368" width="225.92" height="32"/>
<polygon points="216,378.976 282.752,378.976 216,408.72 "/>
<g style="opacity:0.35;">
	<polygon style="fill:#FFFFFF;" points="32,77.632 168,77.632 32,160.64 	"/>
</g>
<g>
	<path style="fill:#FFFFFF;" d="M157.712,223.408h16.256v2.944c0,11.872-2.176,19.552-6.496,23.024s-13.92,5.216-28.752,5.216
		c-16.832,0-27.184-2.752-31.056-8.256s-5.808-20.208-5.808-44.128c0-14.08,2.624-23.344,7.872-27.776s16.24-6.656,32.944-6.656
		c12.176,0,20.304,1.824,24.368,5.472s6.128,10.88,6.128,21.712l0.064,1.936h-16.256v-2.192c0-5.584-1.04-9.152-3.152-10.72
		s-6.912-2.336-14.4-2.336c-10.048,0-16.08,1.232-18.096,3.68s-3.024,9.744-3.024,21.872c0,16.336,0.912,26,2.72,28.992
		c1.808,3.008,7.68,4.496,17.6,4.496c8.048,0,13.264-0.832,15.664-2.496s3.6-5.328,3.6-11.008L157.712,223.408z"/>
	<path style="fill:#FFFFFF;" d="M219.6,167.792c15.504,0,25.488,2.576,29.936,7.712s6.688,16.656,6.688,34.528
		c0,19.536-2.24,31.856-6.72,36.944s-15.328,7.632-32.528,7.632c-15.504,0-25.52-2.512-30.064-7.536s-6.816-16.064-6.816-33.152
		c0-20.336,2.24-33.104,6.688-38.32S202.176,167.792,219.6,167.792z M218.336,181.664c-10.88,0-17.232,1.392-19.056,4.192
		s-2.752,12.464-2.752,28.992c0,12.256,1.072,19.632,3.216,22.128s8.464,3.744,18.976,3.744c10.048,0,16.064-1.408,18.064-4.224
		s3.008-11.344,3.008-25.6c0-14.288-0.96-22.736-2.848-25.344S228.848,181.664,218.336,181.664z"/>
	<path style="fill:#FFFFFF;" d="M267.152,253.856v-85.312h41.936c11.92,0,20.272,2.608,25.024,7.808s7.152,14.336,7.152,27.376
		c0,21.296-1.92,34.976-5.744,41.024s-12.48,9.088-25.936,9.088h-42.432V253.856z M283.344,240.224H306.4
		c7.744,0,12.768-1.776,15.024-5.344s3.408-11.424,3.408-23.6c0-12.592-1.008-20.592-3.056-24s-6.832-5.12-14.368-5.12h-24.064
		L283.344,240.224L283.344,240.224z"/>
	<path style="fill:#FFFFFF;" d="M367.6,182.16v22h40v11.936h-40v24.128h42.56v13.632h-58.752v-85.312h58.368v13.632H367.6V182.16z"
		/>
</g>
</svg>